# xmcd CD database file generated by RipIT.
#
# Track frame offsets:
#	150
#	23509
#	62425
#	83407
#	134737
#	174686
#	203388
#	225401
#	241345
#	271183
#	303687
#	323614
#
# Disc length: 4528 seconds
#
# Revision: 3
# Processed by: cddbd v1.5.1PL2 Copyright (c) Steve Scherf et al.
# Submitted via: RipIT 3.4 www.suwald.com/ripit/ripit.html at Tue Mar 14 10:55:42 CET 2006.
#
DISCID=8e11ae0c
DTITLE=Depeche Mode - Remixes 81-04 [CD3)
DYEAR=2004
DGENRE=Synthpop
TTITLE0=A Question Of Lust (Remix) [Flood]
TTITLE1=Walking In My Shoes (Random Carpet Mix) [William Orbit]
TTITLE2=World In My Eyes (Daniel Miller Mix) [Daniel Miller]
TTITLE3=I Feel Loved (Labour Of Love Edit) [Danny Tenaglia]
TTITLE4=It's No Good (Club 69 Future Mix) [Club 69]
TTITLE5=Photographic (Rex The Dog Dubb Mix) [Rex The Dog]
TTITLE6=Little 15 (Ulrich Schauss Remix) [Ulrich Schauss]
TTITLE7=Nothing (Headcleanr Rock Mix) [Headcleanr]
TTITLE8=Lie To Me (Pleasure Of Her Private Shame Remix) [LFO]
TTITLE9=Clean (Colder Version) [Colder]
TTITLE10=Halo (Goldfrapp Remix) [Goldfrapp]
TTITLE11=Enjoy The Silence (Reinterpreted) [Mike Shinoda (Linkin Park)]
EXTD=ID3G: 147 YEAR: 2004
EXTT0=
EXTT1=
EXTT2=
EXTT3=
EXTT4=
EXTT5=
EXTT6=
EXTT7=
EXTT8=
EXTT9=
EXTT10=
EXTT11=
PLAYORDER=
